HIERARCHY
ROOT Hips
{
  OFFSET 0 0 0
  CHANNELS 6 Xposition Yposition Zposition Zrotation Xrotation Yrotation
  JOINT Spine
  {
    OFFSET 0 10.1816 0.131521
    CHANNELS 3 Zrotation Xrotation Yrotation
    JOINT Spine1
    {
      OFFSET 0 10.0835 -1.0008
      CHANNELS 3 Zrotation Xrotation Yrotation
      JOINT Spine2
      {
        OFFSET 0 9.10001 -1.37342
        CHANNELS 3 Zrotation Xrotation Yrotation
        JOINT Neck
        {
          OFFSET 0 16.6717 -2.51617
          CHANNELS 3 Zrotation Xrotation Yrotation
          JOINT Head
          {
            OFFSET 0 9.61788 1.68501
            CHANNELS 3 Zrotation Xrotation Yrotation
            End Site
            {
              OFFSET 0 10 0
            }
          }
        }
        JOINT LeftShoulder
        {
          OFFSET 4.57045 10.946 -2.62799
          CHANNELS 3 Zrotation Xrotation Yrotation
          JOINT LeftArm
          {
            OFFSET 10.5924 -0.524583 -2.23212
            CHANNELS 3 Zrotation Xrotation Yrotation
            JOINT LeftForeArm
            {
              OFFSET 27.8415 -8.94286e-05 3.74589e-05
              CHANNELS 3 Zrotation Xrotation Yrotation
              JOINT LeftHand
              {
                OFFSET 28.3288 -1.74407e-05 3.78045e-05
                CHANNELS 3 Zrotation Xrotation Yrotation
                End Site
                {
                  OFFSET 10 0 0
                }
              }
            }
          }
        }
        JOINT RightShoulder
        {
          OFFSET -4.56997 10.9462 -2.62802
          CHANNELS 3 Zrotation Xrotation Yrotation
          JOINT RightArm
          {
            OFFSET -10.5928 -0.524798 -2.2321
            CHANNELS 3 Zrotation Xrotation Yrotation
            JOINT RightForeArm
            {
              OFFSET -27.8415 -3.30792e-05 1.16763e-05
              CHANNELS 3 Zrotation Xrotation Yrotation
              JOINT RightHand
              {
                OFFSET -28.3288 0 5.5816e-05
                CHANNELS 3 Zrotation Xrotation Yrotation
                End Site
                {
                  OFFSET -10 0 0
                }
              }
            }
          }
        }
      }
    }
  }
  JOINT RightUpLeg
  {
    OFFSET -8.2078 -6.75166 -1.59956
    CHANNELS 3 Zrotation Xrotation Yrotation
    JOINT RightLeg
    {
      OFFSET 0 -44.3705 0.286156
      CHANNELS 3 Zrotation Xrotation Yrotation
      JOINT RightFoot
      {
        OFFSET 0 -44.4277 -2.98379
        CHANNELS 3 Zrotation Xrotation Yrotation
        JOINT RightToeBase
        {
          OFFSET 0 -8.72867 10.7106
          CHANNELS 3 Zrotation Xrotation Yrotation
          End Site
          {
            OFFSET 0 0 9
          }
        }
      }
    }
  }
  JOINT LeftUpLeg
  {
    OFFSET 8.20778 -6.75171 -1.59956
    CHANNELS 3 Zrotation Xrotation Yrotation
    JOINT LeftLeg
    {
      OFFSET 0 -44.3705 0.284643
      CHANNELS 3 Zrotation Xrotation Yrotation
      JOINT LeftFoot
      {
        OFFSET 0 -44.4279 -2.98219
        CHANNELS 3 Zrotation Xrotation Yrotation
        JOINT LeftToeBase
        {
          OFFSET 0 -8.72867 10.7106
          CHANNELS 3 Zrotation Xrotation Yrotation
          End Site
          {
            OFFSET 0 0 9
          }
        }
      }
    }
  }
}
MOTION
Frames:	16
Frame Time:	0.0333333
-6.37571 134.673 17.5242 170.512 6.89105 -168.844 0.573683 12.7292 0.602566 0.734701 25.4606 1.03904 0.734698 25.4606 1.03905 -3.99172 -27.3613 -6.17572 -2.02798 -33.2464 -11.3375 -8.54987 2.82249 -36.6432 1.07581 -15.1146 3.96261 -26.7049 -14.8309 -71.3925 -6.77807 -20.472 -10.8139 2.65751 1.58018 24.9782 12.0822 -26.2841 5.7595 19.0188 -9.62821 70.1629 9.39591 -19.4203 -12.0611 87.1267 -85.7543 95.4206 -167.175 63.9763 165.096 14.9206 9.76569 3.99935 6.69048 -7.00118 -6.21392 82.8861 -78.5108 84.724 -175.16 53.7692 163.709 -4.63312 -9.82324 0.83332 -1.53998 0.384337 2.00755 
-5.98992 137.266 19.8553 165.828 26.351 -167.85 0.936075 13.2007 1.08908 1.08125 26.4019 1.58224 1.08125 26.4019 1.58225 -4.03288 -20.6137 -5.67456 -1.27644 -32.1619 -9.49953 -7.21475 2.26511 -36.6263 0.175167 -13.9352 8.19374 -31.6062 -15.9294 -80.5371 -9.58118 -23.4578 -13.3145 0.921174 1.15877 24.9131 5.25743 -26.2972 -0.188142 19.6742 -11.9384 72.6964 9.93105 -21.4871 -10.3575 -161.524 -85.343 -155.201 -166.042 65.7283 169.733 13.3864 12.8309 2.68457 7.68566 -7.11195 -7.49956 132.961 -70.9827 137.305 -176.757 47.6885 169.19 -5.40734 -4.40202 1.78959 -2.10345 0.150091 2.66792 
-4.97782 136.258 19.1677 157.38 44.9062 -162.171 0.462885 12.8254 1.38679 0.287578 25.6499 2.21322 0.287571 25.6499 2.21322 -1.95124 -13.5131 -5.01844 -0.322019 -29.652 -7.00975 -4.12312 1.06661 -35.3156 -4.86382 -12.4566 10.9145 -33.783 -15.9949 -88.1461 -10.0773 -23.9779 -16.163 0.283905 0.970589 25.1251 4.92606 -25.0328 -2.23805 17.2856 -12.8719 72.484 8.1773 -18.7404 -6.44756 -142.597 -83.8967 -136.574 -162.117 72.5667 162.431 12.9955 12.5406 4.0394 5.60772 -6.59947 -5.636 144.861 -60.1171 149.326 -173.576 51.6627 169.065 -7.96567 5.5315 4.15099 1.80468 -1.07068 -2.48911 
-5.24624 129.821 16.5689 142.204 60.8394 -149.573 -0.251135 12.0109 1.5752 -1.18597 24.014 2.5425 -1.18599 24.014 2.5425 0.588479 -7.58446 -4.6029 0.389275 -27.3184 -4.92418 -0.403259 -0.269259 -33.3436 -7.84154 -11.691 12.3958 -33.0676 -16.1879 -92.6647 -4.5386 -22.6107 -15.217 0.43448 0.923471 25.5242 10.6768 -24.5398 0.786169 12.9696 -12.5326 70.3446 3.33965 -13.3241 -2.35668 -90.3381 -83.1187 -87.9334 -143.413 85.1017 137.098 11.512 12.4477 5.82763 0.956961 -2.11954 -1.96245 148.914 -56.0961 147.433 -166.482 62.3694 160.268 -5.96142 10.5965 4.54686 2.76222 -4.85845 -4.76522 
-5.57588 119.561 14.1997 111.643 72.2193 -121.382 -0.717217 11.0381 1.76758 -2.34552 22.0724 2.44693 -2.34552 22.0725 2.44693 2.03323 -4.50069 -4.39317 0.6081 -27.031 -3.62765 1.96181 -1.0453 -31.6563 -5.49596 -11.9692 12.5002 -30.2086 -17.0479 -93.9059 5.08034 -18.66 -10.4299 -0.638068 0.514281 25.558 18.5564 -24.3329 6.50429 9.10038 -11.2391 66.155 -0.627962 -9.45329 1.16183 -62.0922 -78.4637 -64.9883 6.16832 77.9513 -11.651 12.7697 7.14173 7.64674 -1.49298 4.87429 -1.01954 154.224 -56.971 143.697 -142.795 75.2447 133.833 -4.10137 8.17538 2.8113 9.30286 -4.39936 -12.8913 
-5.72091 107.381 12.4828 64.2466 73.7206 -76.1928 -0.973085 10.0742 1.57439 -2.7055 20.1544 1.93281 -2.7055 20.1544 1.9328 2.57391 -3.12764 -4.01618 0.663168 -27.9959 -2.12178 2.50364 -1.12027 -29.6965 -1.68372 -14.6832 9.59177 -27.3684 -18.4588 -92.101 13.0776 -11.8299 -5.31271 -3.02936 -0.121075 23.9557 26.4579 -24.36 13.3882 6.83306 -9.82632 58.1953 -2.08421 -8.23778 3.69322 -28.5492 -71.4239 -37.1807 7.40613 51.0385 -16.9472 12.6252 8.18999 7.39258 -2.04495 -3.18818 -2.12897 161.857 -58.9239 149.684 -29.6407 75.9944 17.6935 3.56302 10.903 1.47084 -0.74972 5.75015 2.8542 
-5.80405 95.3588 10.0929 32.1703 66.8748 -44.8409 -1.00079 9.47645 0.845948 -2.64807 18.9546 1.15997 -2.64807 18.9546 1.15996 3.57447 -1.30925 -3.25408 1.13449 -25.6618 0.509161 2.91217 -0.958823 -25.5002 -2.84613 -21.4079 0.359167 -25.3905 -19.844 -85.446 16.5993 -4.86873 -2.69945 -4.69363 -0.154562 20.468 32.9504 -24.9839 21.8266 6.4174 -8.78567 47.4387 -4.20606 -9.24605 4.98641 -2.72335 -59.8531 -20.8258 1.57961 26.7087 -17.7074 7.11973 13.3944 6.60085 6.2816 -15.7475 -6.31742 157.229 -70.2486 139.591 -4.18576 50.5899 -18.1702 0.95355 11.8326 1.98393 0.511043 -4.52096 -1.09499 
-5.16475 85.394 7.23541 16.574 54.9396 -30.1248 -0.969217 9.61996 0.425371 -2.68035 19.2433 0.574517 -2.68035 19.2433 0.574519 5.04286 0.0113383 -2.36288 1.57686 -17.1676 2.94495 4.28687 -0.713055 -19.3541 -10.252 -29.0276 -15.0944 -19.508 -21.1748 -73.3781 17.2899 -0.152432 -2.4656 -4.52788 0.33761 17.4055 34.1785 -26.9106 28.4323 7.86422 -8.72328 39.943 -8.68937 -12.2566 3.61126 -11.4274 -51.2818 -40.2451 5.26328 40.834 -19.2203 19.4768 -26.0388 10.5634 3.89495 -2.37371 -4.53159 166.149 -74.2632 145.532 1.65216 60.883 -19.717 -4.06701 0.145769 -1.4548 -1.10973 -16.3185 -3.8235 
-4.37149 78.077 4.02863 11.2179 45.6434 -25.4058 -1.06735 10.3897 0.338788 -2.79209 20.7811 0.549377 -2.79209 20.7811 0.549378 5.46455 -2.33652 -1.86525 1.64337 -6.08999 3.27219 5.11653 -0.252036 -15.0959 -16.9633 -34.1467 -27.9205 -13.1073 -22.9104 -64.0072 16.6638 2.18043 -2.15153 -3.37073 0.491734 17.6553 27.0151 -30.9858 26.9633 11.2015 -10.1003 40.633 -13.2759 -16.6576 -1.07219 -26.3719 -50.1447 -52.9476 10.8709 67.9573 -21.3987 22.5583 -39.091 13.6069 4.99186 -4.96465 -2.86614 166.639 -73.8048 145.246 -8.88674 72.4323 -8.84772 -6.07322 -10.1896 -3.86377 1.2956 -9.37166 -3.52344 
-3.68297 74.0982 1.19184 10.1088 42.0026 -23.4531 -1.07692 11.2042 0.398067 -2.65687 22.4048 0.806048 -2.65687 22.4048 0.806046 3.71202 -8.54594 -2.07108 2.05652 1.45397 1.14096 3.29197 0.289292 -15.1813 -17.1061 -38.1882 -30.4216 -12.5952 -26.163 -61.3074 14.2582 2.19948 0.0376606 -2.213 0.083703 20.6663 12.8069 -34.1337 17.4202 15.7398 -11.8176 46.8459 -15.5434 -21.3581 -6.19192 -36.3309 -48.8343 -55.2692 49.4303 75.8187 -54.0465 19.5061 -43.5243 10.4593 4.3183 -8.50323 -2.80058 165.998 -72.1639 146.269 -17.5134 76.2579 -3.3261 -5.36295 -14.9334 -3.99585 1.33299 -2.8679 -4.2692 
-3.96792 72.9807 -1.25967 10.1207 40.0165 -21.6803 -0.922022 11.4993 0.306004 -2.17739 22.9922 0.793177 -2.1774 22.9922 0.793183 0.537057 -13.6648 -2.81961 2.75179 2.10891 -2.09123 -0.948805 1.40664 -17.2011 -12.1102 -39.8589 -26.0646 -14.5383 -28.1321 -61.5126 10.342 0.106694 2.10104 -1.34256 -0.354467 22.7556 0.00101902 -34.6197 9.2805 19.049 -12.4664 51.3285 -15.0606 -24.6137 -8.21567 -40.8075 -47.4201 -51.7864 74.9077 70.0402 -73.9459 16.1518 -45.4964 6.31044 1.43109 -8.65142 -2.39677 161.966 -70.8838 144.194 -25.0224 75.2155 0.904005 -4.58835 -11.7662 -4.38558 1.7694 -3.15047 -5.04164 
-4.47167 74.2954 -3.62207 10.41 39.7295 -19.3482 -0.778835 11.0214 0.149774 -1.78 22.0362 0.623243 -1.78 22.0363 0.623248 -1.67329 -12.1508 -3.5867 2.86845 -3.94012 -4.49375 -5.56335 3.00661 -17.5668 -8.88987 -38.1218 -23.378 -15.0622 -27.3685 -59.3001 6.44226 -2.29753 1.4823 -0.906822 -0.313277 21.8804 -4.40516 -35.4134 8.34481 19.5781 -11.9459 51.0202 -13.3038 -24.8119 -7.19849 -41.4867 -46.3577 -50.5552 72.3856 64.7413 -67.6645 10.7595 -47.6153 0.592627 0.196094 -5.07539 -1.89076 159.563 -71.928 143.413 -22.4996 69.4988 -3.91173 -4.96427 -6.24757 -4.09911 1.74709 -4.27251 -5.01015 
-4.97478 76.0281 -5.94622 12.3088 40.3106 -19.6932 -0.881338 9.98625 0.240454 -1.93756 19.9602 0.954251 -1.93756 19.9602 0.954245 -1.55948 -4.15249 -4.05442 2.20374 -13.8264 -5.34977 -8.84296 4.18866 -16.2157 -10.8335 -35.145 -23.7922 -14.0971 -26.2438 -53.7619 3.43056 -3.17276 -0.991304 -1.06779 0.0757685 19.6754 -1.60114 -36.0142 11.533 17.7865 -10.4237 49.4438 -11.8108 -22.4846 -4.88365 -42.3633 -47.2616 -52.7098 65.8819 62.8741 -62.0607 8.99011 -48.3575 0.282111 -0.464203 -1.70488 -1.50056 155.007 -73.2009 141.029 -16.8146 62.9203 -10.4851 -6.62512 -1.98524 -3.39465 2.36068 -5.12977 -5.89491 
-4.91973 78.8811 -8.02446 12.7916 40.1142 -22.5804 -1.1225 8.94305 0.710862 -2.49836 17.86 1.92369 -2.49836 17.86 1.92369 -0.332476 4.02443 -4.2175 1.43777 -22.838 -4.92703 -10.3829 4.75816 -14.947 -15.4428 -32.7643 -23.4664 -12.3434 -26.5435 -46.8684 1.45579 -2.36476 -3.41527 -1.7764 0.324778 18.4108 3.76276 -34.7764 13.8848 15.6737 -8.86766 50.7753 -10.7066 -19.6436 -2.12065 -37.6832 -50.819 -48.1962 55.3762 60.7035 -61.0683 14.0169 -43.4367 7.35938 -0.979004 -1.04685 -1.03856 138.606 -75.3078 125.418 -10.5184 55.1351 -16.1561 -9.2072 1.68801 -2.63585 2.50383 -5.52854 -5.6986 
-4.7042 81.5101 -9.82748 12.7477 39.1141 -25.9611 -1.35781 8.3036 1.2091 -3.05718 16.5642 2.88988 -3.05718 16.5641 2.88988 0.118801 6.22902 -3.9256 1.45211 -27.0131 -3.58767 -10.7934 5.04297 -13.9331 -20.0326 -31.1677 -20.836 -10.0476 -27.2467 -40.9134 0.551523 -0.497039 -5.35529 -2.61394 0.302506 18.054 9.14338 -32.5433 14.507 14.5775 -8.29689 55.083 -10.0288 -17.9618 0.167669 -30.696 -53.6904 -41.0235 45.9471 58.4318 -56.0166 13.3848 -38.7488 6.78084 -1.03306 -1.56926 -0.673415 114.318 -75.6755 100.952 -7.45137 47.4198 -18.1241 -11.701 4.53079 -1.93612 2.59115 -5.66119 -5.19081 
-4.42538 83.5277 -10.0017 12.5356 37.3885 -28.0722 -1.49623 8.15789 1.37845 -3.38705 16.2656 3.18221 -3.38704 16.2656 3.18219 -0.800147 1.32151 -3.2177 2.45613 -25.7897 -2.03267 -10.4908 5.38478 -11.5063 -24.1837 -28.927 -17.504 -7.58132 -26.1473 -37.1276 0.546334 1.69289 -7.65126 -2.47107 0.321271 17.2349 14.2379 -30.7958 16.5003 14.0928 -8.42838 58.642 -9.81271 -18.333 1.21384 -26.1057 -51.756 -38.1122 38.6723 55.9327 -48.4142 11.5693 -35.7748 6.06806 -0.888455 -2.02334 -0.489603 92.2876 -75.7454 76.8315 -6.37054 42.433 -16.2599 -13.4155 4.99599 -1.24628 2.58844 -5.55647 -4.53305 
